# xmcd
#
# Track frame offsets:
#	150
#	16047
#	34073
#	53741
#	73743
#	87618
#	109253
#	123026
#	136107
#	155680
#	182313
#	203762
#	224351
#
# Disc length: 3152 seconds
#
# Revision: 1
# Processed by: cddbd v1.5.2PL0 Copyright (c) Steve Scherf et al.
# Submitted via: audiograbber 1.83.01
#
DISCID=ac0c4e0d
DTITLE=James Intveld - Somewhere Down The Road
DYEAR=2001
DGENRE=Rockabilly
TTITLE0=Somewhere Down The Road
TTITLE1=Stringin' Me On
TTITLE2=All The Way From Memphis
TTITLE3=Love Calls
TTITLE4=One Sweet Letter
TTITLE5=Living Without You
TTITLE6=Stop The World
TTITLE7=Modern Don Juan
TTITLE8=What About You
TTITLE9=If I Should Lose You
TTITLE10=A Sinners Prayer
TTITLE11=Remember Me
TTITLE12=Unknown 13th Song
EXTD=
EXTT0=
EXTT1=
EXTT2=
EXTT3=
EXTT4=
EXTT5=
EXTT6=
EXTT7=
EXTT8=
EXTT9=
EXTT10=
EXTT11=
EXTT12=
PLAYORDER=
